<?xml version='1.0' encoding='UTF-8'?>
<svg xmlns="http://www.w3.org/2000/svg" xmlns:mdcr="http://sensory.com/mdcr" viewBox="0 0 580 480" width="580" height="480">
  <metadata>
    <mdcr:info>
      <mdcr:source format="WMF" generator="wmf2svg.html" />
      <mdcr:bounds left="0" top="0" right="2900" bottom="2400" inch="1440" />
      <mdcr:records count="3">
        <mdcr:record tag="MDCR-{" />
        <mdcr:record tag="MDCR-Vh" value="(c) Sensory Software Ltd and Claro Software Ltd" />
        <mdcr:record tag="MDCR-}" />
      </mdcr:records>
    </mdcr:info>
  </metadata>
  <g data-mdcr="group" class="mdcr-region" data-mdcr-tag="MDCR-Vh" data-mdcr-value="(c) Sensory Software Ltd and Claro Software Ltd">
    <polygon points="238,16 225,32 226,62 240,66 247,72 312,79 312,79 313,81 317,87 318,92 319,98 319,105 318,114 318,114 318,118 318,123 320,128 323,133 327,138 331,140 335,142 340,143 345,144 391,146 391,146 396,143 401,141 407,139 413,138 419,138 422,139 424,140 427,142 428,144 428,213 443,212 449,260 443,268 445,271 470,266 559,245 559,245 562,242 563,240 565,236 566,231 566,226 563,220 559,214 523,141 523,141 520,135 518,130 517,123 517,115 518,107 520,104 522,100 526,97 530,93 549,87 525,59 510,40 510,40 505,35 502,30 501,28 501,28 497,12 492,19 238,16" fill="#bcbec0" stroke="#000000" stroke-width="8" fill-rule="evenodd" />
    <polyline points="225,32 501,32" fill="none" stroke="#000000" stroke-width="8" />
    <polyline points="240,66 537,70" fill="none" stroke="#000000" stroke-width="8" />
    <polyline points="312,79 378,79 378,79 382,79 386,80 391,82 396,86 399,89 401,92 403,97 404,102 405,108 405,115 405,115 405,119 403,126 401,129 399,132 396,135 392,136" fill="none" stroke="#000000" stroke-width="8" />
    <polygon points="404,127 404,127 401,130 398,133 394,135 390,137 382,139 373,140 365,140 358,139 352,139 352,139 346,138 341,137 337,136 334,134 329,130 326,125 325,120 324,116 325,112 325,112 325,108 327,104 330,97 335,91 341,87 346,83 350,81 355,79 355,79 361,78 368,78 375,78 383,79 391,82 395,84 398,87 401,90 403,94 403,94 404,97 407,105 408,110 408,115 407,121 404,127 404,127" fill="#ffffff" stroke="#000000" stroke-width="8" fill-rule="evenodd" />
    <polygon points="366,80 366,80 371,79 375,79 381,79 387,80 393,83 397,87 399,90 400,93 400,93 397,100 393,107 387,114 380,121 376,124 372,127 367,129 362,130 357,130 352,130 352,130 358,128 363,125 369,120 371,117 373,114 374,110 375,105 374,100 373,94 370,87 366,80 366,80" fill="#6d6f71" stroke="#000000" stroke-width="8" fill-rule="evenodd" />
    <polygon points="418,68 524,72 515,105 515,114 561,217 457,237 418,68" fill="#6d6f71" stroke="#000000" stroke-width="8" fill-rule="evenodd" />
    <polygon points="506,33 530,65 534,34 506,33" fill="#6d6f71" stroke="#000000" stroke-width="8" fill-rule="evenodd" />
    <polygon points="443,212 427,141" fill="#6d6f71" stroke="none" stroke-width="0" fill-rule="evenodd" />
    <polyline points="443,212 427,141" fill="none" stroke="#000000" stroke-width="8" />
    <polygon points="18,113 5,128 6,159 19,162 26,168 92,175 92,175 93,177 96,184 98,189 99,195 99,202 98,211 98,211 98,215 98,220 99,225 102,230 107,235 111,237 115,239 119,240 125,240 171,242 171,242 176,240 181,238 187,236 193,234 199,234 202,235 204,237 206,238 208,241 208,310 222,309 229,357 222,365 225,367 249,363 339,342 339,342 341,339 343,336 345,332 346,328 345,323 343,317 338,311 302,237 302,237 300,232 298,226 297,219 296,212 298,204 300,200 302,197 305,193 309,190 329,184 305,155 289,137 289,137 285,131 282,127 280,124 280,124 277,109 271,115 18,113" fill="#bcbec0" stroke="#000000" stroke-width="8" fill-rule="evenodd" />
    <polyline points="5,128 281,128" fill="none" stroke="#000000" stroke-width="8" />
    <polyline points="19,162 317,166" fill="none" stroke="#000000" stroke-width="8" />
    <polyline points="92,175 157,175 157,175 162,175 166,176 171,178 176,183 179,186 181,189 182,194 184,199 185,205 185,212 185,212 185,215 183,222 181,226 179,229 176,232 172,232" fill="none" stroke="#000000" stroke-width="8" />
    <polygon points="183,223 183,223 181,227 178,229 174,232 170,233 162,235 153,236 145,237 138,236 132,235 132,235 126,235 121,234 117,233 113,231 109,227 106,222 104,217 104,213 104,209 104,209 105,204 106,200 110,193 115,188 120,183 126,180 130,178 135,176 135,176 141,175 147,174 155,175 163,176 171,179 175,181 178,184 180,187 182,191 182,191 184,194 187,201 188,206 188,212 186,217 183,223 183,223" fill="#ffffff" stroke="#000000" stroke-width="8" fill-rule="evenodd" />
    <polygon points="146,177 146,177 150,176 155,176 161,176 167,177 172,180 177,184 179,187 180,190 180,190 176,197 172,203 167,211 160,218 156,221 152,223 147,225 142,227 137,227 132,226 132,226 137,224 143,221 149,217 151,214 153,210 154,206 155,202 154,197 153,191 150,184 146,177 146,177" fill="#6d6f71" stroke="#000000" stroke-width="8" fill-rule="evenodd" />
    <polygon points="198,165 304,168 295,202 295,211 340,313 237,333 198,165" fill="#6d6f71" stroke="#000000" stroke-width="8" fill-rule="evenodd" />
    <polygon points="286,130 310,162 313,131 286,130" fill="#6d6f71" stroke="#000000" stroke-width="8" fill-rule="evenodd" />
    <polygon points="222,309 207,238" fill="#6d6f71" stroke="none" stroke-width="0" fill-rule="evenodd" />
    <polyline points="222,309 207,238" fill="none" stroke="#000000" stroke-width="8" />
    <polygon points="195,214 182,229 183,260 196,264 204,269 269,276 269,276 270,278 274,285 275,290 276,296 276,303 275,312 275,312 275,316 275,321 277,326 279,331 284,336 288,338 292,340 297,341 302,342 348,344 348,344 353,341 358,339 364,337 370,336 376,336 379,336 381,338 384,340 385,342 385,411 399,410 406,458 399,466 402,469 427,464 516,443 516,443 518,440 520,437 522,434 523,429 522,424 520,418 516,412 479,338 479,338 477,333 475,328 474,321 474,313 475,305 477,301 479,298 482,294 487,291 506,285 482,257 467,238 467,238 462,232 459,228 458,226 458,226 454,210 448,217 195,214" fill="#bcbec0" stroke="#000000" stroke-width="8" fill-rule="evenodd" />
    <polyline points="182,229 458,229" fill="none" stroke="#000000" stroke-width="8" />
    <polyline points="196,264 494,267" fill="none" stroke="#000000" stroke-width="8" />
    <polyline points="269,276 334,276 334,276 339,277 343,277 348,280 353,284 356,287 358,290 360,295 361,300 362,306 362,313 362,313 362,316 360,323 358,327 356,330 353,333 349,334" fill="none" stroke="#000000" stroke-width="8" />
    <polygon points="360,325 360,325 358,328 355,330 351,333 347,334 339,337 330,338 322,338 315,337 309,336 309,336 303,336 298,335 294,334 290,332 286,328 283,323 281,318 281,314 282,310 282,310 282,306 283,302 287,295 292,289 297,284 303,281 307,279 312,277 312,277 318,276 324,276 332,276 340,277 348,280 352,282 355,285 357,288 360,292 360,292 361,295 364,302 365,307 365,313 363,319 360,325 360,325" fill="#ffffff" stroke="#000000" stroke-width="8" fill-rule="evenodd" />
    <polygon points="323,278 323,278 327,277 332,277 338,277 344,278 349,281 354,285 356,288 357,291 357,291 354,298 349,304 344,312 337,319 333,322 329,325 324,326 319,328 314,328 309,327 309,327 315,325 320,323 326,318 328,315 330,312 331,308 332,303 331,298 330,292 327,285 323,278 323,278" fill="#6d6f71" stroke="#000000" stroke-width="8" fill-rule="evenodd" />
    <polygon points="375,266 481,269 472,303 472,312 517,414 414,434 375,266" fill="#6d6f71" stroke="#000000" stroke-width="8" fill-rule="evenodd" />
    <polygon points="463,231 487,263 490,232 463,231" fill="#6d6f71" stroke="#000000" stroke-width="8" fill-rule="evenodd" />
    <polygon points="399,410 384,339" fill="#6d6f71" stroke="none" stroke-width="0" fill-rule="evenodd" />
    <polyline points="399,410 384,339" fill="none" stroke="#000000" stroke-width="8" />
  </g>
</svg>