<?xml version='1.0' encoding='UTF-8'?>
<svg xmlns="http://www.w3.org/2000/svg" xmlns:mdcr="http://sensory.com/mdcr" viewBox="0 0 290 240" width="290" height="240">
  <metadata>
    <mdcr:info>
      <mdcr:source format="WMF" generator="wmf2svg.html" />
      <mdcr:bounds left="0" top="0" right="1450" bottom="1200" inch="1440" />
      <mdcr:records count="3">
        <mdcr:record tag="MDCR-{" />
        <mdcr:record tag="MDCR-Vh" value="(c) Sensory Software Ltd and Claro Software Ltd" />
        <mdcr:record tag="MDCR-}" />
      </mdcr:records>
    </mdcr:info>
  </metadata>
  <g data-mdcr="group" class="mdcr-region" data-mdcr-tag="MDCR-Vh" data-mdcr-value="(c) Sensory Software Ltd and Claro Software Ltd">
    <polygon points="177,129 177,129 181,128 184,126 190,121 196,114 221,115 221,115 221,115 221,115 223,118 226,121 230,124 235,126 243,129 247,130 255,154 252,156 185,156 177,129" fill="#ebcba7" stroke="#000000" stroke-width="5" fill-rule="evenodd" />
    <polygon points="102,122 102,122 99,122 96,120 91,115 85,109 63,109 63,109 63,109 63,109 61,112 58,115 54,117 50,119 42,122 39,123 32,146 34,148 95,148 102,122" fill="#ebcba7" stroke="#000000" stroke-width="5" fill-rule="evenodd" />
    <polygon points="160,207 160,207 161,194 165,166 168,151 171,137 175,128 176,125 178,124 178,124 180,128 182,131 185,134 188,136 196,139 204,140 213,139 217,138 221,136 225,134 228,131 231,127 233,123 233,123 249,125 254,127 258,129 258,129 261,132 263,137 269,152 274,170 278,187 278,187 279,191 280,194 280,194 280,199 279,202 277,204 275,206 270,207 268,207 160,207" fill="#1d529a" stroke="#000000" stroke-width="5" fill-rule="evenodd" />
    <polygon points="241,150 249,184 186,184 187,206" fill="#1d529a" stroke="none" stroke-width="0" fill-rule="evenodd" />
    <polyline points="241,150 249,184 186,184 187,206" fill="none" stroke="#000000" stroke-width="5" />
    <polygon points="118,209 118,209 117,195 113,164 110,147 107,132 104,122 102,119 101,117 101,117 99,121 97,125 95,128 92,130 88,132 85,134 77,135 68,134 64,133 61,131 57,128 54,125 52,121 49,116 49,116 42,117 35,119 30,121 27,123 27,123 24,126 21,132 16,148 12,168 8,188 8,188 7,191 6,195 6,195 6,200 7,204 9,207 11,208 15,210 17,210 118,209" fill="#1d529a" stroke="#000000" stroke-width="6" fill-rule="evenodd" />
    <polygon points="42,146 35,184 93,184 93,208" fill="#1d529a" stroke="none" stroke-width="0" fill-rule="evenodd" />
    <polyline points="42,146 35,184 93,184 93,208" fill="none" stroke="#000000" stroke-width="6" />
    <polygon points="182,232 100,232 100,156 182,156 182,232" fill="#f8130d" stroke="#000000" stroke-width="5" fill-rule="evenodd" />
    <polygon points="101,184 101,184 100,171 100,171 93,177 88,183 88,183 85,184 83,184 80,183 77,184 77,184 76,186 75,189 75,195 75,201 77,205 77,205 80,207 83,208 90,208 90,208 96,209 102,211 102,211 110,212 117,213 121,213 124,211 127,208 130,204 130,204 131,199 132,195 132,191 131,189 129,187 127,185 122,183 116,183 110,183 101,184 101,184" fill="#ebcba7" stroke="#000000" stroke-width="5" fill-rule="evenodd" />
    <polygon points="181,185 181,185 182,171 182,171 188,178 193,183 193,183 195,184 198,184 201,184 203,184 203,184 204,186 205,189 205,195 204,201 203,206 203,206 200,208 197,208 192,208 192,208 186,209 180,211 180,211 174,212 167,213 164,213 160,211 158,208 155,204 155,204 154,199 153,195 154,192 154,189 156,187 158,185 162,183 168,183 173,183 181,185 181,185" fill="#ebcba7" stroke="#000000" stroke-width="5" fill-rule="evenodd" />
    <polygon points="39,93 39,93 41,96 42,99 41,102 40,104 40,104 38,105 35,104 32,103 30,101 30,101 28,98 27,95 27,92 29,90 29,90 31,89 33,89 36,91 39,93 39,93" fill="#ebcba7" stroke="#000000" stroke-width="5" fill-rule="evenodd" />
    <polygon points="102,76 102,76 101,80 100,83 98,85 96,86 96,86 94,85 92,83 90,80 90,76 90,76 90,73 92,70 94,68 96,67 96,67 98,68 100,70 101,73 102,76 102,76" fill="#ebcba7" stroke="#000000" stroke-width="5" fill-rule="evenodd" />
    <polygon points="26,72 26,72 27,82 31,90 36,98 41,104 48,109 55,113 62,116 70,117 77,116 83,113 88,109 93,103 96,95 97,84 96,72 93,57 93,57 90,49 86,43 82,38 77,34 71,32 65,30 59,30 53,31 47,33 41,36 36,40 32,45 29,50 26,57 25,64 26,72 26,72" fill="#ebcba7" stroke="#000000" stroke-width="5" fill-rule="evenodd" />
    <polygon points="239,100 239,100 237,102 236,105 236,108 238,110 238,110 240,111 243,111 246,110 248,108 248,108 250,105 251,102 251,99 249,97 249,97 247,96 244,96 241,97 239,100 239,100" fill="#ebcba7" stroke="#000000" stroke-width="5" fill-rule="evenodd" />
    <polygon points="174,79 174,79 175,82 176,85 178,87 180,88 180,88 183,88 185,86 186,83 186,79 186,79 186,76 184,73 182,71 180,70 180,70 178,70 176,72 175,75 174,79 174,79" fill="#ebcba7" stroke="#000000" stroke-width="5" fill-rule="evenodd" />
    <polygon points="252,79 252,79 250,89 247,97 242,105 236,111 230,116 223,119 215,121 208,122 201,120 194,117 188,113 184,106 181,97 179,87 180,74 183,59 183,59 185,51 189,45 194,40 199,37 205,35 211,34 217,34 223,35 230,38 235,41 240,45 245,51 248,57 251,63 252,71 252,79 252,79" fill="#ebcba7" stroke="#000000" stroke-width="5" fill-rule="evenodd" />
  </g>
</svg>